<?xml version="1.0" standalone="no"?>
<!DOCTYPE svg PUBLIC "-//W3C//DTD SVG 20010904//EN"
 "http://www.w3.org/TR/2001/REC-SVG-20010904/DTD/svg10.dtd">
<svg version="1.0" xmlns="http://www.w3.org/2000/svg"
 width="4000.000000pt" height="1000.000000pt" viewBox="0 0 4000.000000 1000.000000"
 preserveAspectRatio="xMidYMid meet">

<g transform="translate(0.000000,1000.000000) scale(0.100000,-0.100000)"
fill="#000000" stroke="none">
<path d="M3320 6860 c-1021 -98 -1744 -602 -1965 -1370 -54 -188 -69 -307 -69
-535 0 -178 3 -214 27 -326 39 -183 78 -295 162 -464 123 -249 307 -464 535
-628 116 -83 377 -213 525 -262 467 -155 1018 -192 1709 -114 364 41 659 108
924 211 l102 40 0 824 0 824 -795 0 -795 0 0 -310 0 -310 400 0 400 0 0 -275
0 -274 -42 -11 c-24 -6 -56 -15 -73 -20 -126 -38 -416 -83 -605 -95 -366 -23
-880 132 -1200 361 -358 256 -523 636 -455 1049 36 221 130 402 294 565 233
232 617 401 1025 451 121 15 443 6 601 -16 386 -53 730 -150 987 -278 79 -39
146 -73 151 -75 4 -2 7 156 7 351 l0 355 -105 41 c-338 133 -712 229 -1080
277 -135 18 -535 26 -665 14z"/>
<path d="M36555 6503 c-424 -57 -831 -245 -1108 -512 -215 -208 -336 -409
-403 -669 -35 -132 -43 -336 -20 -477 94 -571 593 -1049 1280 -1226 228 -59
555 -84 787 -60 741 77 1349 487 1563 1053 52 140 70 242 70 413 1 234 -34
382 -140 585 -73 141 -159 253 -286 375 -130 125 -258 216 -418 299 -222 114
-461 188 -708 220 -155 20 -465 20 -617 -1z m575 -538 c410 -77 738 -314 868
-626 173 -418 -30 -874 -493 -1106 -201 -101 -398 -147 -635 -146 -367 0 -681
118 -914 342 -125 122 -200 239 -248 391 -19 64 -23 96 -23 215 0 119 4 151
23 215 125 399 517 679 1027 734 77 8 311 -3 395 -19z"/>
<path d="M11810 6494 c-14 -2 -65 -9 -115 -15 -107 -14 -287 -57 -405 -97
-602 -208 -1024 -656 -1111 -1181 -14 -85 -14 -287 0 -372 44 -265 182 -528
387 -735 354 -358 886 -564 1457 -564 216 0 362 17 558 66 666 165 1164 622
1280 1174 31 147 31 345 0 490 -136 643 -779 1141 -1586 1230 -84 9 -409 12
-465 4z m495 -554 c444 -86 791 -371 887 -729 26 -99 29 -276 4 -375 -76 -313
-347 -577 -717 -700 -156 -52 -268 -69 -454 -69 -371 -1 -694 122 -925 352
-177 176 -261 368 -261 596 0 229 83 420 261 596 198 197 479 320 805 353 83
8 298 -5 400 -24z"/>
<path d="M26198 5978 c-142 -282 -471 -937 -731 -1456 l-474 -942 336 2 335 3
196 402 195 402 651 1 652 0 208 -405 209 -404 343 -1 c211 0 342 4 340 9 -1
6 -349 660 -773 1455 l-770 1446 -230 0 -230 0 -257 -512z m670 -713 c100
-179 182 -327 182 -330 0 -3 -159 -5 -354 -5 l-355 0 167 330 c92 181 169 330
173 330 3 0 87 -146 187 -325z"/>
<path d="M30140 5035 l0 -1455 300 0 300 0 2 980 3 980 1032 -980 1033 -980
265 0 265 0 0 1455 0 1455 -305 0 -305 0 0 -970 c0 -533 -3 -970 -7 -969 -5 0
-465 436 -1023 969 l-1015 969 -272 1 -273 0 0 -1455z"/>
<path d="M15810 5015 l0 -1435 335 0 335 0 0 595 0 595 53 0 c292 -1 702 -372
1146 -1037 l101 -153 411 0 411 0 -33 43 c-83 106 -508 630 -643 792 -199 239
-282 333 -382 435 l-84 85 70 54 c219 167 340 404 340 665 0 143 -19 229 -75
342 -115 231 -351 389 -656 439 -77 12 -206 15 -711 15 l-618 0 0 -1435z
m1246 863 c98 -52 145 -138 145 -267 1 -118 -57 -198 -183 -256 -108 -49 -161
-58 -375 -63 l-203 -4 0 312 0 311 283 -3 282 -3 51 -27z"/>
<path d="M20370 5014 l0 -1435 758 4 c807 4 817 5 1082 58 679 137 1117 450
1284 917 52 146 69 260 70 462 0 211 -16 323 -69 486 -65 197 -152 341 -295
484 -242 243 -614 402 -1052 449 -60 7 -416 11 -938 11 l-840 0 0 -1436z
m1770 881 c280 -42 513 -159 650 -328 158 -193 218 -505 150 -772 -94 -367
-446 -602 -995 -665 -49 -5 -289 -10 -532 -10 l-443 0 0 895 0 895 538 0 c417
0 558 -3 632 -15z"/>
<path d="M7587 6433 c-4 -3 -7 -658 -7 -1455 l0 -1448 335 0 335 0 0 1455 0
1455 -328 0 c-181 0 -332 -3 -335 -7z"/>
</g>
</svg>
